<mxfile host="app.diagrams.net" modified="2024-04-22T15:16:32.859Z" agent="Mozilla/5.0 (Windows NT 10.0; Win64; x64) AppleWebKit/537.36 (KHTML, like Gecko) Chrome/121.0.0.0 Safari/537.36 OPR/107.0.0.0" etag="o3s_8CZzFEy_weihudyj" version="24.2.7" type="device">
  <diagram name="Страница — 1" id="Gz8Y4uP6j8lVro7vN51i">
    <mxGraphModel dx="600" dy="1253" grid="1" gridSize="10" guides="1" tooltips="1" connect="1" arrows="1" fold="1" page="1" pageScale="1" pageWidth="827" pageHeight="1169" math="0" shadow="0">
      <root>
        <mxCell id="0" />
        <mxCell id="1" parent="0" />
        <mxCell id="0i7wq5PaYFQ5ocxbWWNQ-1" value="0" style="ellipse;whiteSpace=wrap;html=1;fillColor=#647687;strokeColor=#314354;fontColor=#ffffff;" parent="1" vertex="1">
          <mxGeometry x="190" y="240" width="40" height="40" as="geometry" />
        </mxCell>
        <mxCell id="0i7wq5PaYFQ5ocxbWWNQ-2" value="1" style="ellipse;whiteSpace=wrap;html=1;fillColor=#647687;strokeColor=#314354;fontColor=#ffffff;" parent="1" vertex="1">
          <mxGeometry x="290" y="240" width="40" height="40" as="geometry" />
        </mxCell>
        <mxCell id="0i7wq5PaYFQ5ocxbWWNQ-3" value="6" style="ellipse;whiteSpace=wrap;html=1;fillColor=#647687;strokeColor=#314354;fontColor=#ffffff;" parent="1" vertex="1">
          <mxGeometry x="290" y="360" width="40" height="40" as="geometry" />
        </mxCell>
        <mxCell id="0i7wq5PaYFQ5ocxbWWNQ-4" value="5" style="ellipse;whiteSpace=wrap;html=1;fillColor=#647687;strokeColor=#314354;fontColor=#ffffff;" parent="1" vertex="1">
          <mxGeometry x="190" y="360" width="40" height="40" as="geometry" />
        </mxCell>
        <mxCell id="0i7wq5PaYFQ5ocxbWWNQ-5" value="2" style="ellipse;whiteSpace=wrap;html=1;fillColor=#647687;strokeColor=#314354;fontColor=#ffffff;" parent="1" vertex="1">
          <mxGeometry x="150" y="300" width="40" height="40" as="geometry" />
        </mxCell>
        <mxCell id="0i7wq5PaYFQ5ocxbWWNQ-6" value="3" style="ellipse;whiteSpace=wrap;html=1;fillColor=#647687;strokeColor=#314354;fontColor=#ffffff;" parent="1" vertex="1">
          <mxGeometry x="240" y="300" width="40" height="40" as="geometry" />
        </mxCell>
        <mxCell id="0i7wq5PaYFQ5ocxbWWNQ-7" value="4" style="ellipse;whiteSpace=wrap;html=1;fillColor=#647687;strokeColor=#314354;fontColor=#ffffff;" parent="1" vertex="1">
          <mxGeometry x="330" y="300" width="40" height="40" as="geometry" />
        </mxCell>
        <mxCell id="0i7wq5PaYFQ5ocxbWWNQ-9" value="" style="endArrow=classic;html=1;rounded=0;exitX=1;exitY=1;exitDx=0;exitDy=0;entryX=0;entryY=0;entryDx=0;entryDy=0;" parent="1" source="0i7wq5PaYFQ5ocxbWWNQ-1" target="0i7wq5PaYFQ5ocxbWWNQ-6" edge="1">
          <mxGeometry width="50" height="50" relative="1" as="geometry">
            <mxPoint x="380" y="350" as="sourcePoint" />
            <mxPoint x="430" y="300" as="targetPoint" />
          </mxGeometry>
        </mxCell>
        <mxCell id="0i7wq5PaYFQ5ocxbWWNQ-10" value="" style="endArrow=classic;html=1;rounded=0;exitX=1;exitY=0;exitDx=0;exitDy=0;entryX=0;entryY=1;entryDx=0;entryDy=0;" parent="1" source="0i7wq5PaYFQ5ocxbWWNQ-6" target="0i7wq5PaYFQ5ocxbWWNQ-2" edge="1">
          <mxGeometry width="50" height="50" relative="1" as="geometry">
            <mxPoint x="380" y="350" as="sourcePoint" />
            <mxPoint x="430" y="300" as="targetPoint" />
          </mxGeometry>
        </mxCell>
        <mxCell id="0i7wq5PaYFQ5ocxbWWNQ-11" value="" style="endArrow=classic;html=1;rounded=0;exitX=0.5;exitY=0;exitDx=0;exitDy=0;entryX=1;entryY=1;entryDx=0;entryDy=0;" parent="1" source="0i7wq5PaYFQ5ocxbWWNQ-7" target="0i7wq5PaYFQ5ocxbWWNQ-2" edge="1">
          <mxGeometry width="50" height="50" relative="1" as="geometry">
            <mxPoint x="380" y="350" as="sourcePoint" />
            <mxPoint x="430" y="300" as="targetPoint" />
          </mxGeometry>
        </mxCell>
        <mxCell id="0i7wq5PaYFQ5ocxbWWNQ-12" value="" style="endArrow=classic;html=1;rounded=0;exitX=1;exitY=0.5;exitDx=0;exitDy=0;entryX=0;entryY=0.5;entryDx=0;entryDy=0;" parent="1" source="0i7wq5PaYFQ5ocxbWWNQ-6" target="0i7wq5PaYFQ5ocxbWWNQ-7" edge="1">
          <mxGeometry width="50" height="50" relative="1" as="geometry">
            <mxPoint x="380" y="350" as="sourcePoint" />
            <mxPoint x="430" y="300" as="targetPoint" />
          </mxGeometry>
        </mxCell>
        <mxCell id="0i7wq5PaYFQ5ocxbWWNQ-13" value="" style="endArrow=classic;html=1;rounded=0;exitX=0.5;exitY=1;exitDx=0;exitDy=0;entryX=1;entryY=0;entryDx=0;entryDy=0;" parent="1" source="0i7wq5PaYFQ5ocxbWWNQ-7" target="0i7wq5PaYFQ5ocxbWWNQ-3" edge="1">
          <mxGeometry width="50" height="50" relative="1" as="geometry">
            <mxPoint x="380" y="350" as="sourcePoint" />
            <mxPoint x="430" y="300" as="targetPoint" />
          </mxGeometry>
        </mxCell>
        <mxCell id="0i7wq5PaYFQ5ocxbWWNQ-14" value="" style="endArrow=classic;html=1;rounded=0;exitX=1;exitY=1;exitDx=0;exitDy=0;entryX=0;entryY=0;entryDx=0;entryDy=0;" parent="1" source="0i7wq5PaYFQ5ocxbWWNQ-6" target="0i7wq5PaYFQ5ocxbWWNQ-3" edge="1">
          <mxGeometry width="50" height="50" relative="1" as="geometry">
            <mxPoint x="380" y="350" as="sourcePoint" />
            <mxPoint x="430" y="300" as="targetPoint" />
          </mxGeometry>
        </mxCell>
        <mxCell id="0i7wq5PaYFQ5ocxbWWNQ-15" value="" style="endArrow=classic;html=1;rounded=0;exitX=0;exitY=1;exitDx=0;exitDy=0;entryX=1;entryY=0;entryDx=0;entryDy=0;" parent="1" source="0i7wq5PaYFQ5ocxbWWNQ-6" target="0i7wq5PaYFQ5ocxbWWNQ-4" edge="1">
          <mxGeometry width="50" height="50" relative="1" as="geometry">
            <mxPoint x="380" y="350" as="sourcePoint" />
            <mxPoint x="430" y="300" as="targetPoint" />
          </mxGeometry>
        </mxCell>
        <mxCell id="0i7wq5PaYFQ5ocxbWWNQ-16" value="" style="endArrow=classic;html=1;rounded=0;exitX=1;exitY=0.5;exitDx=0;exitDy=0;entryX=0;entryY=0.5;entryDx=0;entryDy=0;" parent="1" source="0i7wq5PaYFQ5ocxbWWNQ-4" target="0i7wq5PaYFQ5ocxbWWNQ-3" edge="1">
          <mxGeometry width="50" height="50" relative="1" as="geometry">
            <mxPoint x="380" y="350" as="sourcePoint" />
            <mxPoint x="430" y="300" as="targetPoint" />
          </mxGeometry>
        </mxCell>
        <mxCell id="0i7wq5PaYFQ5ocxbWWNQ-17" value="" style="endArrow=classic;html=1;rounded=0;exitX=0;exitY=0;exitDx=0;exitDy=0;entryX=1;entryY=1;entryDx=0;entryDy=0;" parent="1" source="0i7wq5PaYFQ5ocxbWWNQ-4" target="0i7wq5PaYFQ5ocxbWWNQ-5" edge="1">
          <mxGeometry width="50" height="50" relative="1" as="geometry">
            <mxPoint x="380" y="350" as="sourcePoint" />
            <mxPoint x="430" y="300" as="targetPoint" />
          </mxGeometry>
        </mxCell>
        <mxCell id="SAXcW1KYLPt2JDvEqiPW-1" value="&lt;div style=&quot;text-align: center;&quot;&gt;&lt;span style=&quot;background-color: initial;&quot;&gt;1/14&lt;/span&gt;&lt;/div&gt;" style="text;whiteSpace=wrap;html=1;" vertex="1" parent="1">
          <mxGeometry x="170" y="220" width="20" height="20" as="geometry" />
        </mxCell>
        <mxCell id="SAXcW1KYLPt2JDvEqiPW-3" value="&lt;div style=&quot;text-align: center;&quot;&gt;&lt;span style=&quot;background-color: initial;&quot;&gt;2/13&lt;/span&gt;&lt;/div&gt;" style="text;whiteSpace=wrap;html=1;" vertex="1" parent="1">
          <mxGeometry x="250" y="270" width="20" height="20" as="geometry" />
        </mxCell>
        <mxCell id="SAXcW1KYLPt2JDvEqiPW-22" value="&lt;div style=&quot;text-align: center;&quot;&gt;&lt;span style=&quot;background-color: initial;&quot;&gt;3/4&lt;/span&gt;&lt;/div&gt;" style="text;whiteSpace=wrap;html=1;" vertex="1" parent="1">
          <mxGeometry x="270" y="220" width="20" height="20" as="geometry" />
        </mxCell>
        <mxCell id="SAXcW1KYLPt2JDvEqiPW-45" value="&lt;div style=&quot;text-align: center;&quot;&gt;&lt;span style=&quot;background-color: initial;&quot;&gt;5/6&lt;/span&gt;&lt;/div&gt;" style="text;whiteSpace=wrap;html=1;" vertex="1" parent="1">
          <mxGeometry x="340" y="370" width="20" height="20" as="geometry" />
        </mxCell>
        <mxCell id="SAXcW1KYLPt2JDvEqiPW-46" value="&lt;div style=&quot;text-align: center;&quot;&gt;&lt;span style=&quot;background-color: initial;&quot;&gt;7/8&lt;/span&gt;&lt;/div&gt;" style="text;whiteSpace=wrap;html=1;" vertex="1" parent="1">
          <mxGeometry x="350" y="270" width="20" height="20" as="geometry" />
        </mxCell>
        <mxCell id="SAXcW1KYLPt2JDvEqiPW-47" value="&lt;div style=&quot;text-align: center;&quot;&gt;&lt;span style=&quot;background-color: initial;&quot;&gt;9/12&lt;/span&gt;&lt;/div&gt;" style="text;whiteSpace=wrap;html=1;" vertex="1" parent="1">
          <mxGeometry x="230" y="380" width="20" height="20" as="geometry" />
        </mxCell>
        <mxCell id="SAXcW1KYLPt2JDvEqiPW-48" value="&lt;div style=&quot;text-align: center;&quot;&gt;&lt;span style=&quot;background-color: initial;&quot;&gt;10/11&lt;/span&gt;&lt;/div&gt;" style="text;whiteSpace=wrap;html=1;" vertex="1" parent="1">
          <mxGeometry x="150" y="350" width="20" height="20" as="geometry" />
        </mxCell>
        <mxCell id="SAXcW1KYLPt2JDvEqiPW-49" value="0" style="ellipse;whiteSpace=wrap;html=1;fillColor=#647687;strokeColor=#314354;fontColor=#ffffff;" vertex="1" parent="1">
          <mxGeometry x="160" y="480" width="40" height="40" as="geometry" />
        </mxCell>
        <mxCell id="SAXcW1KYLPt2JDvEqiPW-50" value="3" style="ellipse;whiteSpace=wrap;html=1;fillColor=#647687;strokeColor=#314354;fontColor=#ffffff;" vertex="1" parent="1">
          <mxGeometry x="240" y="480" width="40" height="40" as="geometry" />
        </mxCell>
        <mxCell id="SAXcW1KYLPt2JDvEqiPW-51" value="5" style="ellipse;whiteSpace=wrap;html=1;fillColor=#647687;strokeColor=#314354;fontColor=#ffffff;" vertex="1" parent="1">
          <mxGeometry x="320" y="480" width="40" height="40" as="geometry" />
        </mxCell>
        <mxCell id="SAXcW1KYLPt2JDvEqiPW-52" value="2" style="ellipse;whiteSpace=wrap;html=1;fillColor=#647687;strokeColor=#314354;fontColor=#ffffff;" vertex="1" parent="1">
          <mxGeometry x="400" y="480" width="40" height="40" as="geometry" />
        </mxCell>
        <mxCell id="SAXcW1KYLPt2JDvEqiPW-53" value="4" style="ellipse;whiteSpace=wrap;html=1;fillColor=#647687;strokeColor=#314354;fontColor=#ffffff;" vertex="1" parent="1">
          <mxGeometry x="480" y="480" width="40" height="40" as="geometry" />
        </mxCell>
        <mxCell id="SAXcW1KYLPt2JDvEqiPW-54" value="6" style="ellipse;whiteSpace=wrap;html=1;fillColor=#647687;strokeColor=#314354;fontColor=#ffffff;" vertex="1" parent="1">
          <mxGeometry x="560" y="480" width="40" height="40" as="geometry" />
        </mxCell>
        <mxCell id="SAXcW1KYLPt2JDvEqiPW-55" value="1" style="ellipse;whiteSpace=wrap;html=1;fillColor=#647687;strokeColor=#314354;fontColor=#ffffff;" vertex="1" parent="1">
          <mxGeometry x="640" y="480" width="40" height="40" as="geometry" />
        </mxCell>
        <mxCell id="SAXcW1KYLPt2JDvEqiPW-56" value="" style="endArrow=classic;html=1;rounded=0;exitX=1;exitY=0.5;exitDx=0;exitDy=0;entryX=0;entryY=0.5;entryDx=0;entryDy=0;" edge="1" parent="1" source="SAXcW1KYLPt2JDvEqiPW-49" target="SAXcW1KYLPt2JDvEqiPW-50">
          <mxGeometry width="50" height="50" relative="1" as="geometry">
            <mxPoint x="390" y="410" as="sourcePoint" />
            <mxPoint x="440" y="360" as="targetPoint" />
          </mxGeometry>
        </mxCell>
        <mxCell id="SAXcW1KYLPt2JDvEqiPW-57" value="" style="endArrow=classic;html=1;rounded=0;exitX=1;exitY=0.5;exitDx=0;exitDy=0;entryX=0;entryY=0.5;entryDx=0;entryDy=0;" edge="1" parent="1" source="SAXcW1KYLPt2JDvEqiPW-50" target="SAXcW1KYLPt2JDvEqiPW-51">
          <mxGeometry width="50" height="50" relative="1" as="geometry">
            <mxPoint x="320" y="460" as="sourcePoint" />
            <mxPoint x="370" y="410" as="targetPoint" />
          </mxGeometry>
        </mxCell>
        <mxCell id="SAXcW1KYLPt2JDvEqiPW-58" value="" style="endArrow=classic;html=1;rounded=0;exitX=1;exitY=0.5;exitDx=0;exitDy=0;entryX=0;entryY=0.5;entryDx=0;entryDy=0;" edge="1" parent="1" source="SAXcW1KYLPt2JDvEqiPW-51" target="SAXcW1KYLPt2JDvEqiPW-52">
          <mxGeometry width="50" height="50" relative="1" as="geometry">
            <mxPoint x="320" y="460" as="sourcePoint" />
            <mxPoint x="370" y="410" as="targetPoint" />
          </mxGeometry>
        </mxCell>
        <mxCell id="SAXcW1KYLPt2JDvEqiPW-60" value="" style="endArrow=classic;html=1;rounded=0;exitX=1;exitY=0.5;exitDx=0;exitDy=0;entryX=0;entryY=0.5;entryDx=0;entryDy=0;" edge="1" parent="1" source="SAXcW1KYLPt2JDvEqiPW-53" target="SAXcW1KYLPt2JDvEqiPW-54">
          <mxGeometry width="50" height="50" relative="1" as="geometry">
            <mxPoint x="440" y="460" as="sourcePoint" />
            <mxPoint x="490" y="410" as="targetPoint" />
          </mxGeometry>
        </mxCell>
        <mxCell id="SAXcW1KYLPt2JDvEqiPW-62" value="" style="endArrow=classic;html=1;rounded=0;exitX=0.5;exitY=0;exitDx=0;exitDy=0;curved=1;entryX=0.5;entryY=0;entryDx=0;entryDy=0;" edge="1" parent="1" source="SAXcW1KYLPt2JDvEqiPW-50" target="SAXcW1KYLPt2JDvEqiPW-55">
          <mxGeometry width="50" height="50" relative="1" as="geometry">
            <mxPoint x="430" y="380" as="sourcePoint" />
            <mxPoint x="480" y="330" as="targetPoint" />
            <Array as="points">
              <mxPoint x="460" y="410" />
            </Array>
          </mxGeometry>
        </mxCell>
        <mxCell id="SAXcW1KYLPt2JDvEqiPW-63" value="" style="endArrow=classic;html=1;rounded=0;exitX=0.5;exitY=1;exitDx=0;exitDy=0;curved=1;entryX=0.5;entryY=1;entryDx=0;entryDy=0;" edge="1" parent="1" source="SAXcW1KYLPt2JDvEqiPW-50" target="SAXcW1KYLPt2JDvEqiPW-54">
          <mxGeometry width="50" height="50" relative="1" as="geometry">
            <mxPoint x="440" y="400" as="sourcePoint" />
            <mxPoint x="490" y="350" as="targetPoint" />
            <Array as="points">
              <mxPoint x="430" y="600" />
            </Array>
          </mxGeometry>
        </mxCell>
        <mxCell id="SAXcW1KYLPt2JDvEqiPW-65" value="" style="endArrow=classic;html=1;rounded=0;exitX=0.5;exitY=0;exitDx=0;exitDy=0;entryX=0.5;entryY=0;entryDx=0;entryDy=0;curved=1;" edge="1" parent="1" source="SAXcW1KYLPt2JDvEqiPW-50" target="SAXcW1KYLPt2JDvEqiPW-53">
          <mxGeometry width="50" height="50" relative="1" as="geometry">
            <mxPoint x="350" y="420" as="sourcePoint" />
            <mxPoint x="400" y="370" as="targetPoint" />
            <Array as="points">
              <mxPoint x="390" y="450" />
            </Array>
          </mxGeometry>
        </mxCell>
        <mxCell id="SAXcW1KYLPt2JDvEqiPW-66" value="" style="endArrow=classic;html=1;rounded=0;exitX=0.5;exitY=1;exitDx=0;exitDy=0;entryX=0.5;entryY=1;entryDx=0;entryDy=0;curved=1;" edge="1" parent="1" source="SAXcW1KYLPt2JDvEqiPW-53" target="SAXcW1KYLPt2JDvEqiPW-55">
          <mxGeometry width="50" height="50" relative="1" as="geometry">
            <mxPoint x="460" y="420" as="sourcePoint" />
            <mxPoint x="510" y="370" as="targetPoint" />
            <Array as="points">
              <mxPoint x="580" y="560" />
            </Array>
          </mxGeometry>
        </mxCell>
        <mxCell id="SAXcW1KYLPt2JDvEqiPW-67" value="" style="endArrow=classic;html=1;rounded=0;exitX=0.5;exitY=0;exitDx=0;exitDy=0;entryX=0.5;entryY=0;entryDx=0;entryDy=0;curved=1;" edge="1" parent="1" source="SAXcW1KYLPt2JDvEqiPW-51" target="SAXcW1KYLPt2JDvEqiPW-54">
          <mxGeometry width="50" height="50" relative="1" as="geometry">
            <mxPoint x="400" y="410" as="sourcePoint" />
            <mxPoint x="450" y="360" as="targetPoint" />
            <Array as="points">
              <mxPoint x="460" y="440" />
            </Array>
          </mxGeometry>
        </mxCell>
        <mxCell id="SAXcW1KYLPt2JDvEqiPW-69" value="0" style="ellipse;whiteSpace=wrap;html=1;fillColor=#647687;fontColor=#ffffff;strokeColor=#314354;" vertex="1" parent="1">
          <mxGeometry x="350" y="590" width="40" height="40" as="geometry" />
        </mxCell>
        <mxCell id="SAXcW1KYLPt2JDvEqiPW-70" value="1" style="ellipse;whiteSpace=wrap;html=1;fillColor=#647687;fontColor=#ffffff;strokeColor=#314354;" vertex="1" parent="1">
          <mxGeometry x="450" y="590" width="40" height="40" as="geometry" />
        </mxCell>
        <mxCell id="SAXcW1KYLPt2JDvEqiPW-71" value="6" style="ellipse;whiteSpace=wrap;html=1;fillColor=#647687;fontColor=#ffffff;strokeColor=#314354;" vertex="1" parent="1">
          <mxGeometry x="450" y="710" width="40" height="40" as="geometry" />
        </mxCell>
        <mxCell id="SAXcW1KYLPt2JDvEqiPW-72" value="5" style="ellipse;whiteSpace=wrap;html=1;fillColor=#647687;fontColor=#ffffff;strokeColor=#314354;" vertex="1" parent="1">
          <mxGeometry x="350" y="710" width="40" height="40" as="geometry" />
        </mxCell>
        <mxCell id="SAXcW1KYLPt2JDvEqiPW-73" value="2" style="ellipse;whiteSpace=wrap;html=1;fillColor=#647687;fontColor=#ffffff;strokeColor=#314354;" vertex="1" parent="1">
          <mxGeometry x="310" y="650" width="40" height="40" as="geometry" />
        </mxCell>
        <mxCell id="SAXcW1KYLPt2JDvEqiPW-74" value="3" style="ellipse;whiteSpace=wrap;html=1;fillColor=#647687;fontColor=#ffffff;strokeColor=#314354;" vertex="1" parent="1">
          <mxGeometry x="400" y="650" width="40" height="40" as="geometry" />
        </mxCell>
        <mxCell id="SAXcW1KYLPt2JDvEqiPW-75" value="4" style="ellipse;whiteSpace=wrap;html=1;fillColor=#647687;fontColor=#ffffff;strokeColor=#314354;" vertex="1" parent="1">
          <mxGeometry x="490" y="650" width="40" height="40" as="geometry" />
        </mxCell>
        <mxCell id="SAXcW1KYLPt2JDvEqiPW-85" value="&lt;div style=&quot;text-align: center;&quot;&gt;&lt;br&gt;&lt;/div&gt;" style="text;whiteSpace=wrap;html=1;" vertex="1" parent="1">
          <mxGeometry x="410" y="620" width="20" height="20" as="geometry" />
        </mxCell>
        <mxCell id="SAXcW1KYLPt2JDvEqiPW-97" value="" style="endArrow=none;html=1;rounded=0;entryX=0;entryY=0.5;entryDx=0;entryDy=0;exitX=1;exitY=0.5;exitDx=0;exitDy=0;" edge="1" parent="1" source="SAXcW1KYLPt2JDvEqiPW-74" target="SAXcW1KYLPt2JDvEqiPW-75">
          <mxGeometry width="50" height="50" relative="1" as="geometry">
            <mxPoint x="390" y="550" as="sourcePoint" />
            <mxPoint x="440" y="500" as="targetPoint" />
          </mxGeometry>
        </mxCell>
        <mxCell id="SAXcW1KYLPt2JDvEqiPW-105" value="&lt;div&gt;1&lt;/div&gt;" style="text;whiteSpace=wrap;html=1;" vertex="1" parent="1">
          <mxGeometry x="460" y="650" width="30" height="20" as="geometry" />
        </mxCell>
        <mxCell id="SAXcW1KYLPt2JDvEqiPW-115" value="" style="endArrow=none;html=1;rounded=0;exitX=1;exitY=0.5;exitDx=0;exitDy=0;entryX=0;entryY=0.5;entryDx=0;entryDy=0;" edge="1" parent="1" source="SAXcW1KYLPt2JDvEqiPW-72" target="SAXcW1KYLPt2JDvEqiPW-71">
          <mxGeometry width="50" height="50" relative="1" as="geometry">
            <mxPoint x="410" y="760" as="sourcePoint" />
            <mxPoint x="460" y="710" as="targetPoint" />
          </mxGeometry>
        </mxCell>
        <mxCell id="SAXcW1KYLPt2JDvEqiPW-116" value="2" style="text;whiteSpace=wrap;html=1;" vertex="1" parent="1">
          <mxGeometry x="414" y="710" width="30" height="20" as="geometry" />
        </mxCell>
        <mxCell id="SAXcW1KYLPt2JDvEqiPW-118" value="" style="endArrow=none;html=1;rounded=0;entryX=1;entryY=1;entryDx=0;entryDy=0;exitX=0;exitY=0;exitDx=0;exitDy=0;" edge="1" parent="1" source="SAXcW1KYLPt2JDvEqiPW-74" target="SAXcW1KYLPt2JDvEqiPW-69">
          <mxGeometry width="50" height="50" relative="1" as="geometry">
            <mxPoint x="400" y="730" as="sourcePoint" />
            <mxPoint x="450" y="680" as="targetPoint" />
          </mxGeometry>
        </mxCell>
        <mxCell id="SAXcW1KYLPt2JDvEqiPW-119" value="2" style="text;whiteSpace=wrap;html=1;" vertex="1" parent="1">
          <mxGeometry x="399" y="620" width="30" height="20" as="geometry" />
        </mxCell>
        <mxCell id="SAXcW1KYLPt2JDvEqiPW-120" value="" style="endArrow=none;html=1;rounded=0;entryX=1;entryY=1;entryDx=0;entryDy=0;exitX=0.5;exitY=0;exitDx=0;exitDy=0;" edge="1" parent="1" source="SAXcW1KYLPt2JDvEqiPW-75" target="SAXcW1KYLPt2JDvEqiPW-70">
          <mxGeometry width="50" height="50" relative="1" as="geometry">
            <mxPoint x="410" y="670" as="sourcePoint" />
            <mxPoint x="460" y="620" as="targetPoint" />
          </mxGeometry>
        </mxCell>
        <mxCell id="SAXcW1KYLPt2JDvEqiPW-121" value="3" style="text;whiteSpace=wrap;html=1;" vertex="1" parent="1">
          <mxGeometry x="500" y="620" width="30" height="20" as="geometry" />
        </mxCell>
        <mxCell id="SAXcW1KYLPt2JDvEqiPW-122" value="" style="endArrow=none;html=1;rounded=0;entryX=0;entryY=1;entryDx=0;entryDy=0;" edge="1" parent="1" source="SAXcW1KYLPt2JDvEqiPW-72" target="SAXcW1KYLPt2JDvEqiPW-74">
          <mxGeometry width="50" height="50" relative="1" as="geometry">
            <mxPoint x="320" y="540" as="sourcePoint" />
            <mxPoint x="370" y="490" as="targetPoint" />
          </mxGeometry>
        </mxCell>
        <mxCell id="SAXcW1KYLPt2JDvEqiPW-123" value="6" style="text;whiteSpace=wrap;html=1;" vertex="1" parent="1">
          <mxGeometry x="379" y="680" width="11" height="20" as="geometry" />
        </mxCell>
        <mxCell id="SAXcW1KYLPt2JDvEqiPW-126" value="" style="endArrow=none;html=1;rounded=0;entryX=0.5;entryY=1;entryDx=0;entryDy=0;exitX=0;exitY=0;exitDx=0;exitDy=0;" edge="1" parent="1" source="SAXcW1KYLPt2JDvEqiPW-72" target="SAXcW1KYLPt2JDvEqiPW-73">
          <mxGeometry width="50" height="50" relative="1" as="geometry">
            <mxPoint x="390" y="650" as="sourcePoint" />
            <mxPoint x="440" y="600" as="targetPoint" />
          </mxGeometry>
        </mxCell>
        <mxCell id="SAXcW1KYLPt2JDvEqiPW-127" value="10" style="text;whiteSpace=wrap;html=1;" vertex="1" parent="1">
          <mxGeometry x="320" y="690" width="20" height="10" as="geometry" />
        </mxCell>
      </root>
    </mxGraphModel>
  </diagram>
</mxfile>
